<?xml version="1.0" encoding="utf-8" ?>
<svg xmlns="http://www.w3.org/2000/svg" xmlns:xlink="http://www.w3.org/1999/xlink" width="512" height="512">
	<path fill="#1E2E57" d="M0 6.59811L-0 -0L20.5476 0L51.0428 0L89.3058 0L119.284 0L157.276 0L187.303 0L278.036 0L312.544 0L347.766 0L382.282 0L387.46 0L422.982 0L454.958 0L489.224 0L512 0L512 5.65359L512 14.3503L512 21.8474L512 24.5705L512 59.4362L512 68.0842L512 94.4768L512 101.163L512 107.122L512 115.848L512 119.579L512 127.808L512 151.004L512 163.175L512 171.346L512 179.95L512 195.429L512 215.17L512 238.876L512 247.402L512 262.003L512 270.37L512 278.065L512 280.749L512 315.601L512 324.194L512 350.594L512 357.102L512 363.19L512 372.062L512 375.736L512 384.083L512 407.129L512 419.04L512 427.452L512 436.35L512 451.178L512 471.177L512 495.295L512 503.649L512 512L482.465 512L466.835 512L414 512L383.227 512L308.363 512L292.214 512L202.462 512L167.461 512L132.727 512L98.4533 512L81.2978 512L47.2763 512L15.2843 512L-0 512L0 507.829L0 500.051L0 491.605L-0 488.843L0 483.969L-0 478.67L0 469.748L-0 463.382L0 454.961L-0 431.787L0 425.35L0 417.222L-0 408.813L0 396.618L0 377.829L0 339.908L0 331.152L0 322.639L0 308.169L0 281.22L0 280.73L0 267.395L0 262.565L-0 255.594L0 251.672L0 243.805L0 235.327L-0 232.36L0 227.874L-0 222.357L0 213.558L-0 207.48L0 198.95L-0 175.297L0 169.127L0 161.11L-0 152.293L0 140.225L0 121.09L0 83.6338L0 74.8507L-0 66.5666L0 52.17L0 11.153L0 6.59811Z"/>
	<path fill="#35244B" d="M145.906 484.41L159.88 488.209C159.318 488.823 158.308 489.465 157.412 489.338L157.012 489.221C156.74 489.022 156.503 488.762 156.194 488.625C155.305 488.23 153.145 488.519 152.133 488.574C149.041 488.742 145.166 489.255 142.155 488.513C143.456 488.462 144.713 488.152 145.972 488.13C147.672 488.1 149.3 488.322 151 488.127C151.492 487.8 151.56 487.877 152.125 487.877C152.281 487.669 152.871 487.022 152.877 486.807L150.376 486.062C149.181 485.761 147.167 485.46 146.21 484.672L145.906 484.41Z"/>
	<path fill="#CD1931" d="M0 454.961C2.34974 456.945 3.75157 460.442 5.63111 462.927L-0 463.382L0 454.961Z"/>
	<path fill="#CD1931" d="M512 384.083C509.706 381.997 507.919 378.51 506.315 375.851L512 375.736L512 384.083Z"/>
	<path fill="#CD1931" d="M512 119.579L512 127.808C509.636 125.825 507.841 122.304 506.251 119.673L512 119.579Z"/>
	<path fill="#CD1931" d="M0 198.95C1.30165 199.871 2.058 201.233 2.98154 202.5C3.97384 203.862 4.99322 205.073 6.24419 206.204L-0 207.48L0 198.95Z"/>
	<path fill="#CD1931" d="M0 227.874L0.366251 227.81L14.3056 224.228L14.4828 232.326L-0 232.36L0 227.874Z"/>
	<path fill="#CD1931" d="M0 483.969L14.3042 480.382L14.7073 488.587L-0 488.843L0 483.969Z"/>
	<path fill="#CD1931" d="M163.394 113.947C157.041 112.447 150.033 112.216 143.52 111.816C145.759 110.67 148.163 109.902 150.537 109.085C155.14 107.501 159.577 106.272 164.334 105.246C164.449 107.614 165.013 109.623 164.462 111.995C164.345 112.5 164.442 112.465 164.686 112.896L164.366 113.111L163.854 113.138L163.394 113.947Z"/>
	<path fill="#CD1931" d="M292.214 512C293.504 509.657 294.988 507.439 296.458 505.205C297.725 503.279 298.906 501.315 300.572 499.702L308.363 512L292.214 512Z"/>
	<path fill="#CD1931" d="M0 469.748L14.4271 466.242L14.3345 475.098L-0 478.67L0 469.748Z"/>
	<path fill="#CD1931" d="M0 213.558L0.268555 213.537C4.94459 213.114 9.84557 211.067 14.4369 209.936L14.6212 218.524C9.70123 219.535 4.95163 221.617 -0 222.357L0 213.558Z"/>
	<path fill="#CD1931" d="M260.918 361.05C265.288 361.421 269.842 363.195 274.078 364.344C279.662 365.858 285.892 367.017 291.248 369.2L260.938 369.032L260.918 361.05Z"/>
	<path fill="#CD1931" d="M385.51 472.597L413.75 472.563L397.418 477.308L375.076 483.33L375.492 474.491L385.51 472.597Z"/>
	<path fill="#CD1931" d="M403.201 216.128C405.025 216.032 406.804 216.149 408.625 216.161C410.044 216.17 411.624 215.915 413 216.286L413.045 216.504C411.841 217.417 409.676 217.71 408.228 218.088L400.906 220.125L383.941 224.991C381.032 225.854 378.212 226.707 375.205 227.164L375.263 218.699C376.285 218.253 377.428 218.05 378.5 217.746C380.301 217.236 382.057 216.657 383.922 216.415C386.573 216.07 389.344 216.22 392.016 216.23L403.201 216.128Z"/>
	<path fill="#CD1931" d="M371.542 41.125L372.084 41.2156C371.988 42.9042 363.386 56.5049 361.853 58.2311C359.936 60.391 353.362 59.8475 350.625 59.9553L349.905 59.9249L349.721 59.625C351.006 56.0276 352.665 52.3708 354.641 49.0947C355.527 47.6244 356.661 45.6736 358.072 44.6586C359.362 43.7308 361.437 43.3737 362.963 43.0273L371.542 41.125Z"/>
	<path fill="#CD1931" d="M225.301 150.652L246.115 156.305C246.535 156.446 247.402 156.719 247.728 157.019C248.12 157.379 248.551 158.366 248.828 158.842L252.942 166.693L225.665 159.429L225.301 150.652Z"/>
	<path fill="#CD1931" d="M225.138 406.894L246.125 412.489C249.241 413.639 251.503 419.967 252.806 422.901C243.629 421.518 234.893 417.379 225.72 415.737C225.403 414.618 225.52 413.324 225.483 412.166L225.138 406.894Z"/>
	<path fill="#CD1931" d="M371.27 297.375L372.375 297.146L372.532 297.625L361.475 315.524L349.914 315.652C349.366 315.588 349.263 315.584 348.832 315.25C349.74 312.628 351.928 309.774 353.399 307.398C354.551 305.537 355.849 302.876 357.424 301.405C359.599 299.375 368.104 298.121 371.27 297.375Z"/>
	<path fill="#CD1931" d="M383.227 512C386.073 510.284 390.073 509.561 393.27 508.63L414.412 502.715C418.709 501.554 422.863 500.068 427.278 499.375L427.203 505.129C427.185 506.007 427.286 507.06 426.983 507.892C422.902 508.975 418.194 509.835 414.443 511.773L414 512L383.227 512Z"/>
	<path fill="#CD1931" d="M167.461 512C168.106 511.562 168.768 511.25 169.511 511.02C172.778 510.009 176.199 509.378 179.524 508.57L199.303 503.748L213.545 500.24C217.565 499.228 221.43 498.08 225.575 497.683C225.623 499.881 226.134 503.525 225.593 505.572C221.246 506.942 216.686 507.969 212.25 509.019C208.973 509.794 205.475 510.424 202.462 512L167.461 512Z"/>
	<path fill="#CD1931" d="M278.036 0L312.544 0C310.538 1.34808 307.214 1.74565 304.875 2.35686L284.246 7.37168L249.744 15.7861L249.687 7.29762L263.375 4.14296L273.375 1.75061C274.874 1.32049 276.534 0.992126 277.854 0.12716L278.036 0Z"/>
	<path fill="#CD1931" d="M225.271 446.375L263.945 457.236C262.736 457.833 261.095 458.088 259.785 458.445L249.605 461.227L236.375 465C233.678 465.796 231.011 466.733 228.259 467.32C227.392 467.505 226.409 467.836 225.536 467.729L225.473 459.108C226.237 458.675 227.314 458.616 228.184 458.46C229.87 458.159 231.485 457.841 233.101 457.255L225.413 455.441L225.219 449.375C225.161 448.388 224.876 447.306 225.271 446.375Z"/>
	<path fill="#CD1931" d="M225.549 199.217L225.36 190.284L251.765 197.546C256.042 198.712 260.184 200.12 264.583 200.757L225.439 211.689L225.432 206.295C225.39 205.204 225.167 203.897 225.399 202.849C225.499 202.245 225.585 201.68 225.543 201.066L225.549 199.217Z"/>
	<path fill="#35244B" d="M225.549 199.217C227.719 199.56 230.113 199.92 232.125 200.82C231.763 201.454 231.305 201.542 230.625 201.729L225.399 202.849C225.499 202.245 225.585 201.68 225.543 201.066L225.549 199.217Z"/>
	<path fill="#CD1931" d="M512 68.0842C510.331 69.61 509.179 71.5703 507.984 73.468L503.12 81.3898L495.038 94.4623C490.919 94.8816 486.579 94.4989 482.438 94.3888C482.87 92.7313 484.624 90.5334 485.542 89.0257L494.325 74.6872L500.394 64.5763C501.403 63.0185 502.557 61.1944 503.862 59.8822C503.925 59.8185 504.279 59.5019 504.316 59.4866C504.609 59.3666 505.652 59.4778 505.997 59.4755L512 59.4362L512 68.0842Z"/>
	<path fill="#CD1931" d="M512 315.601L512 324.194C509.331 326.705 507.534 330.473 505.613 333.573L499.536 343.331C498.291 345.475 496.864 348.713 495.059 350.335C494.186 351.12 483.983 350.684 482.108 350.608L503.849 315.734C504.726 315.493 505.747 315.602 506.652 315.6L512 315.601Z"/>
	<path fill="#D9213B" d="M375.14 130.27C375.24 130.837 375.19 131.399 375.163 131.97C374.945 132.284 374.753 132.5 374.386 132.643C371.751 133.663 368.881 134.3 366.167 135.094L348.493 140.049C340.15 142.336 331.934 145.099 323.486 146.99L323.011 138.478L373.809 124.067L374.547 124.625C374.469 126.519 374.51 128.394 374.925 130.252L375.14 130.27Z"/>
	<path fill="#CD1931" d="M400.364 280.625C404.239 280.09 408.387 280.881 412.327 280.548L412.202 281.02C411.778 282.232 410.68 283.637 409.991 284.769L403.175 295.68L391.976 313.878C391.504 314.571 391.121 315.067 390.375 315.486C389.135 315.916 387.46 315.812 386.15 315.797L378.095 315.609L383.125 307.218L394.389 289.015L397.619 283.893C398.171 283.027 398.738 281.925 399.446 281.197C399.736 280.899 399.991 280.794 400.364 280.625Z"/>
	<path fill="#CD1931" d="M404.629 24.3544L412.992 24.4973C410.096 27.7523 407.982 31.7665 405.685 35.455L391.074 59.2086C389.852 59.5183 388.329 59.3861 387.063 59.4154L377.898 59.3457L399.258 24.8599C400.797 24.3744 402.992 24.4747 404.629 24.3544Z"/>
	<path fill="#CD1931" d="M512 115.848L470.87 104.142C475.847 102.276 481.151 101.009 486.253 99.5063C491.558 97.9434 497.219 95.8979 502.654 94.9703C505.691 94.4518 508.922 94.5271 512 94.4768L512 101.163L512 107.122L512 115.848Z"/>
	<path fill="#1E2E57" d="M512 107.122C510.45 106.936 508.991 106.386 507.501 105.943L500.594 103.929L512 101.163L512 107.122Z"/>
	<path fill="#CD1931" d="M512 350.594L512 357.102L512 363.19L512 372.062L470.901 360.184L487.33 355.432C492.566 353.872 498.048 351.745 503.433 350.928C506.216 350.506 509.183 350.625 512 350.594Z"/>
	<path fill="#1E2E57" d="M512 357.102L512 363.19C508.36 362.543 504.772 361.408 501.305 360.145C504.808 359.022 508.359 357.701 512 357.102Z"/>
	<path fill="#CD1931" d="M512 495.295L512 503.649L512 512L482.465 512L466.835 512L466.592 507.21L478.154 504.028L491.033 500.531C497.962 498.522 504.85 496.378 512 495.295Z"/>
	<path fill="#1E2E57" d="M482.465 512C484.911 510.349 488.646 509.776 491.468 508.967C498.261 507.02 505.063 505.025 512 503.649L512 512L482.465 512Z"/>
	<path fill="#D9213B" d="M184.734 59.0238C188.847 59.0403 193.49 58.071 197.487 59.0653C197.97 59.1855 198.964 59.385 199.446 59.2769L212.25 59.6743C208.883 61.3417 204.98 61.32 201.385 62.3107L156.043 75.0387L147.488 77.4165C143.828 78.5289 140.263 79.7439 136.398 79.832C136.291 77.8332 136.128 75.6809 136.805 73.7631L136.5 73.2096L136.542 72.803C138.321 72.4375 140.087 71.702 141.811 71.1192L151.745 67.7145C162.433 64.1649 173.635 60.9124 184.734 59.0238Z"/>
	<path fill="#CD1931" d="M300.115 243.625L300.481 243.588C301.416 244.305 302.148 245.777 302.794 246.777L308.17 255.222C310.718 255.576 313.308 255.147 315.889 255.477C310.67 257.398 305.162 258.522 299.776 259.884L261.724 269.217L249.692 271.806C249.669 270.807 249.406 263.938 249.698 263.636C249.904 263.423 279.862 256.259 282.582 255.87C284.798 255.552 287.118 255.572 289.357 255.494C290.057 255.469 291.266 255.589 291.9 255.412C293.028 255.096 298.37 245.427 299.949 243.793L300.115 243.625Z"/>
	<path fill="#CD1931" d="M136.5 73.2096C133.917 73.6121 131.348 74.455 128.83 75.1448L117.439 78.2419L99.0381 83.39C95.3059 84.4058 91.537 85.5682 87.7133 86.174C83.1764 86.8928 78.1807 86.5064 73.5879 86.5238C68.1804 86.5443 62.6005 86.8468 57.2113 86.4416C59.3813 85.0463 62.7443 84.6835 65.25 84.0065L80.875 79.7626L112.591 70.9533L134.587 65.0134L134.726 70.1082C134.749 70.6002 134.666 71.6982 134.824 72.125C134.932 72.4142 135.191 72.6211 135.375 72.8691L136.542 72.803L136.5 73.2096Z"/>
	<path fill="#D9213B" d="M316.57 113.081C314.078 112.996 311.488 112.9 309.041 112.401C305.814 111.743 302.669 110.62 299.46 109.857L286.625 106.775L260.858 99.6945L260.798 90.9625C268.795 92.7153 276.394 95.4077 284.28 97.4716L293.904 99.8545L313.222 105.341C317.792 106.566 322.479 107.381 327 108.787C329.858 109.676 332.524 110.88 335.23 112.15C333.81 112.872 331.107 112.598 329.5 112.663C325.217 112.838 320.852 113.292 316.57 113.081Z"/>
	<path fill="#CD1931" d="M190.379 144.027C188.837 144.331 187.035 144.225 185.455 144.266C180.317 144.399 175.152 144.012 170.039 144.281L225.334 159.594L225.618 159.642L225.38 168.123C222.588 167.687 219.855 166.799 217.13 166.064L201.365 161.69L154.947 149.08L137.462 144.309C139.874 143.743 142.634 143.945 145.106 143.95C150.345 143.96 155.691 144.204 160.915 143.851C165.511 143.541 169.376 141.785 173.806 140.863L173.442 141.193C172.986 141.591 172.698 141.622 172.125 141.773C171.207 142.015 170.24 142.298 169.374 142.688C170.013 142.749 170.511 142.87 171.125 143L171.835 142.996C172.31 143.026 172.688 143.214 173.123 143.375C173.511 143.519 173.85 143.545 174.25 143.625L174.562 143.703C174.94 143.778 174.819 143.756 175.203 143.693C175.919 143.576 176.61 143.709 177.328 143.638C177.731 143.599 177.603 143.623 178.039 143.81C179.062 144.248 180.312 143.979 181.375 143.877C182.753 143.746 184.283 143.869 185.677 143.873C187.215 143.877 188.87 143.755 190.379 144.027Z"/>
	<path fill="#CD1931" d="M512 471.177C509.645 473.194 508.138 476.392 506.505 479L500.807 487.524C499.167 490.083 497.761 492.984 495.797 495.29C495.735 495.362 495.699 495.475 495.609 495.504C494.82 495.761 493.172 495.531 492.266 495.531C488.981 495.531 485.656 495.432 482.381 495.712L481.903 495.755L467.645 472.601C471.907 472.857 475.896 472.919 480.179 472.75C481.209 473.702 481.944 475.172 482.689 476.367L486.741 483.003C487.324 484.033 487.824 485.482 488.633 486.301C491.501 482.342 493.84 478.119 496.451 474L504.637 461.678L508.814 454.996C509.742 453.577 510.607 452.185 512 451.178L512 471.177Z"/>
	<path fill="#CD1931" d="M512 215.17L511.804 215.357C508.863 218.023 507.107 221.758 504.983 225.067L495.782 239.419L481.674 239.22C479.371 236.352 477.515 232.952 475.577 229.823L467.216 216.359L480.341 216.852C483.606 221.026 485.681 225.902 488.778 230.158L502.58 208.269C504.596 205.097 506.571 201.875 508.831 198.87C509.769 197.622 510.67 196.286 512 195.429L512 215.17Z"/>
	<path fill="#CD1931" d="M466.737 181.201L479.351 181.57C476.318 185.563 474.335 190.55 471.084 194.293L470.788 194.625C469.724 195.878 468.534 196.566 467.134 197.392C466.561 199.537 466.714 201.694 466.738 203.891L466.74 212.197C466.724 213.53 466.835 215.073 466.555 216.375C466.25 217.788 465.172 219.348 464.451 220.596L458.09 230.879L449.409 245.469C447.851 248.098 446.324 251.273 444.396 253.625C444.172 253.899 443.923 254.035 443.625 254.213C439.603 255.036 435.418 254.085 431.38 254.398L441.86 236.756L461.456 204.252L464.699 199.021C465.324 198.06 466.294 196.919 466.591 195.818C466.976 194.392 466.766 192.43 466.763 190.95L466.737 181.201Z"/>
	<path fill="#CD1931" d="M466.691 437.454L479.051 437.462C476.565 441.871 473.974 446.792 470.88 450.783C470.342 451.476 469.753 452.272 469.07 452.823C468.569 453.228 467.459 453.59 467.125 454.108C466.557 454.989 466.753 457.286 466.751 458.321L466.814 469.453C466.836 470.292 467.191 472.071 466.989 472.756C466.851 473.225 466.163 474.005 465.872 474.462L462.921 479.189L450.255 500.457C448.244 503.766 446.297 507.426 443.875 510.448C442.789 511.001 441.121 510.782 439.904 510.777L431.332 510.618L441.373 494.044L446.714 484.755L461.821 459.612L465.32 454.196C465.647 453.723 466.513 452.788 466.672 452.273C467.045 451.057 466.807 449.073 466.802 447.773L466.691 437.454Z"/>
	<path fill="#CD1931" d="M387.46 0L422.982 0C425.584 1.43459 428.718 1.95381 431.577 2.68373L449.973 7.08547L490.577 17.0841C497.684 18.7768 504.734 20.9429 512 21.8474L512 24.5705L495.577 24.5215C492.188 24.4989 488.658 24.6763 485.306 24.1961C481.807 23.6949 478.22 22.5715 474.794 21.6796L460.517 18.1588L402.224 3.94818L388.532 0.547302C388.1 0.449564 387.814 0.254802 387.46 0Z"/>
	<path fill="#CD1931" d="M375.869 397.625C378.539 396.848 386.292 399.792 389.163 400.608L405.25 405.172L413.866 407.445C412.102 408.066 410.198 408.429 408.393 408.934L397.176 412.092L385.125 415.53C381.807 416.466 378.608 417.453 375.173 417.9L375.072 410.25C375.196 410.042 375.251 409.773 375.443 409.625C375.897 409.276 376.974 409.09 377.536 408.955C379.214 408.552 380.849 408.168 382.474 407.583C380.372 406.813 378.485 406.363 376.254 406.16C373.743 408.152 369.969 408.897 366.934 409.782L323.661 421.997L323.026 413.482C326.8 412.147 330.752 411.356 334.596 410.254L361.324 402.606L369.601 400.251C371.661 399.637 373.838 399.048 375.62 397.806L375.869 397.625Z"/>
	<path fill="#CD1931" d="M0 491.605L36.4436 500.39L53.4051 504.524L69.8878 508.523C72.5907 509.189 75.3367 509.768 77.9966 510.592C79.1023 510.934 80.3853 511.268 81.2978 512L47.2763 512L15.2843 512L-0 512L0 507.829L0 500.051L0 491.605Z"/>
	<path fill="#1E2E57" d="M0 500.051C6.35229 500.997 12.6509 503.005 18.8922 504.515L35.4758 508.573C39.2581 509.501 43.9116 510.042 47.2763 512L15.2843 512L-0 512L0 507.829L0 500.051Z"/>
	<path fill="#CD1931" d="M0 507.829C3.41734 508.332 6.79467 509.336 10.1179 510.262C11.8761 510.752 13.7003 511.06 15.2843 512L-0 512L0 507.829Z"/>
	<path fill="#CD1931" d="M373.53 151.674L323.448 165.859L323.191 157.204L347.006 150.398L362.75 145.964C365.373 145.236 368.045 144.658 370.624 143.779C372.372 143.183 374.337 142.647 375.702 141.375L376.104 141.04L376.384 140.805L401.392 147.843C405.524 149.006 410.062 149.747 413.987 151.452L375.404 161.812C375.278 159.096 374.808 155.899 375.237 153.232C375.202 152.805 375.2 152.965 375.221 152.559L375.237 152.287L373.53 151.674Z"/>
	<path fill="#35244B" d="M373.53 151.674L373.789 151.568C374.735 151.167 375.228 150.751 375.875 149.963C377.406 149.351 379.268 150.158 380.706 150.764C381.338 151.031 381.893 151.329 382.466 151.703C380.223 152.137 377.301 152.366 375.237 153.232C375.202 152.805 375.2 152.965 375.221 152.559L375.237 152.287L373.53 151.674Z"/>
	<path fill="#D9213B" d="M164.686 112.896C167.633 112.478 170.733 112.537 173.707 112.483C178.053 112.405 182.412 112.336 186.733 112.877C190.614 113.362 194.448 114.382 198.229 115.358L221.977 122.326L233.197 125.087C237.353 126.179 241.203 127.738 245.474 128.43C243.348 129.484 240.86 130.083 238.59 130.773L219.887 135.938L203.017 140.934L194.917 143.405C193.417 143.787 191.934 144.076 190.379 144.027C188.87 143.755 187.215 143.877 185.677 143.873C184.283 143.869 182.753 143.746 181.375 143.877C180.312 143.979 179.062 144.248 178.039 143.81C177.603 143.623 177.731 143.599 177.328 143.638C176.61 143.709 175.919 143.576 175.203 143.693C174.819 143.756 174.94 143.778 174.562 143.703L174.25 143.625C173.85 143.545 173.511 143.519 173.123 143.375C172.688 143.214 172.31 143.026 171.835 142.996L171.125 143C170.511 142.87 170.013 142.749 169.374 142.688C170.24 142.298 171.207 142.015 172.125 141.773C172.698 141.622 172.986 141.591 173.442 141.193L173.806 140.863C176.52 139.671 179.64 139.06 182.482 138.204L205.372 131.798C208.83 130.929 212.632 130.415 215.942 129.123C210.983 127.198 205.769 125.949 200.658 124.487L175.847 117.443C171.669 116.275 167.435 115.618 163.394 113.947L163.854 113.138L164.366 113.111L164.686 112.896Z"/>
	<path fill="#CD1931" d="M155.713 86.5679C152.928 87.0168 150.025 88.1912 147.326 89.0397L136.953 91.9635L106.921 99.8564L78.7338 107.784C71.525 109.729 63.9045 112.707 56.4343 113.164C56.1654 111.912 55.9839 110.527 55.4907 109.344C54.3569 106.626 52.2708 103.883 50.6611 101.394C47.4194 96.3814 43.926 91.2185 41.0727 85.9842C45.3331 86.1746 50.1226 85.4666 54.2697 86.4341C54.9449 87.2748 55.6357 88.2178 55.912 89.2787C56.2805 90.6936 56.0481 92.6898 56.0454 94.1561L55.9736 105.276L102.166 92.674C109.175 90.72 116.252 88.289 123.375 86.8164C129.985 85.4498 137.063 86.6525 143.782 86.348C146.516 86.224 149.242 86.0216 151.796 84.9724L152.128 84.8323C152.787 85.5492 153.106 85.791 154 86.1275L154.304 86.2703C154.754 86.4593 155.233 86.4991 155.713 86.5679Z"/>
	<path fill="#CD1931" d="M232.379 369.125C234.241 369.034 236.199 369.276 238.083 369.267L251.799 369.222C254.388 369.203 258.652 368.656 261.069 369.513L312.9 384.776L261.248 399.985C259.332 400.355 257.311 400.305 255.363 400.368L243.53 400.499C239.469 400.507 235.357 400.769 231.308 400.459C233.052 399.605 234.867 399.15 236.717 398.586L247.416 395.476L283.262 385.103L282.818 384.919C278.601 383.126 273.885 382.1 269.484 380.796L239.88 372.125L234.396 370.503C233.586 370.258 232.687 370.086 232.046 369.508L232.379 369.125Z"/>
	<path fill="#CD1931" d="M512 270.37C504.667 269.58 497.268 267.157 490.108 265.409L449.526 255.489C451.981 254.89 454.377 254.996 456.885 254.983L466.757 254.949L466.639 251.038L512 238.876L512 247.402L512 262.003L512 270.37Z"/>
	<path fill="#1E2E57" d="M512 262.003L495.691 258.359C491.474 257.342 487.219 256.522 483.161 254.958L499.908 250.477C503.817 249.34 507.954 247.826 512 247.402L512 262.003Z"/>
	<path fill="#CD1931" d="M111.028 224.382L132.714 230.186C135.686 230.963 138.697 231.875 141.732 232.364C146.764 233.175 152.025 231.616 157.126 232.591C154.797 233.543 152.384 233.87 149.959 234.496L132.479 238.869L92.7356 248.502C91.4536 248.753 90.168 248.914 88.8594 248.847C84.9026 248.643 80.5053 246.989 76.6291 246.013L56.059 241.034L22.6308 232.919C25.1148 232.508 27.6444 232.536 30.1559 232.482L41.5405 232.351C46.4703 232.345 51.9586 231.949 56.8117 232.747C60.8202 233.406 64.7505 234.687 68.679 235.705L79.9873 238.422L87.2228 240.22C88.2078 240.431 89.3412 240.771 90.3425 240.612L122.831 232.633L111.148 232.592L111.028 224.382Z"/>
	<path fill="#CD1931" d="M157.012 489.221L126.5 496.481L99.1665 503.252C96.3731 503.897 92.9824 505.127 90.121 505.172C86.5713 505.226 82.1883 503.641 78.7417 502.756L65.559 499.492L22.1304 489.049C25.7354 488.631 29.4351 488.784 33.0615 488.704C42.6178 488.492 52.6438 487.863 61.9825 490.183L79.9492 494.661C82.9518 495.397 86.288 496.537 89.375 496.678C92.3859 496.816 95.995 495.602 98.9282 494.888L112.716 491.516C116.028 490.688 120.384 490.171 123.353 488.562C121.238 488.367 118.792 488.949 116.61 488.915C115.648 488.901 111.672 488.922 111.13 488.37L111.22 480.459C113.806 480.76 116.443 481.671 118.95 482.381L132.926 486.34C135.986 487.179 138.996 488.123 142.155 488.513C145.166 489.255 149.041 488.742 152.133 488.574C153.145 488.519 155.305 488.23 156.194 488.625C156.503 488.762 156.74 489.022 157.012 489.221Z"/>
	<path fill="#1E2E57" d="M422.982 0L454.958 0L489.224 0L512 0L512 5.65359L512 14.3503L512 21.8474C504.734 20.9429 497.684 18.7768 490.577 17.0841L449.973 7.08547L431.577 2.68373C428.718 1.95381 425.584 1.43459 422.982 0Z"/>
	<path fill="#CD1931" d="M454.958 0L489.224 0L512 0L512 5.65359L512 14.3503L476.546 5.83924L460.717 1.88933C459.005 1.42504 456.387 1.03008 454.958 0Z"/>
	<path fill="#1E2E57" d="M489.224 0L512 0L512 5.65359C507.099 5.12661 502.173 3.86683 497.404 2.63527C494.678 1.93129 491.73 1.29931 489.224 0Z"/>
	<path fill="#D9213B" d="M260.236 113.466L260.363 113.155C261.182 111.024 261.471 107.36 261.112 105.096C262.893 105.395 264.753 105.611 266.5 106.059C270.01 106.96 273.418 108.389 276.875 109.481L285.869 112.123L280.768 112.845C277.153 113.44 273.867 113.981 270.165 113.813C268.594 113.956 267.181 114.245 265.663 114.67C269.003 116.223 272.737 117.082 276.263 118.115L293.125 123.162C297.104 124.225 301.173 124.843 305.125 126.012C307.874 126.824 310.358 127.957 312.929 129.204C307.172 130.372 301.524 132.45 295.881 134.097L275.806 139.649C270.825 141.133 265.579 143.097 260.477 143.955C255.617 144.773 250.234 144.187 245.305 144.201C240.613 144.215 235.884 144.583 231.199 144.381C234.816 142.442 239.538 141.512 243.479 140.375L266.528 133.74L276.672 131.139C279.064 130.538 281.487 130.031 283.79 129.132C282.331 128.124 280.21 127.647 278.518 127.177L268.548 124.582L243.752 117.356C239.588 116.171 235.391 115.402 231.299 113.93C234.141 113.271 237.006 113.135 239.906 112.918C246.903 112.395 253.272 112.507 260.236 113.466Z"/>
	<path fill="#CD1931" d="M300.081 453.875L300.613 453.771C302.966 456.862 304.9 460.395 307.017 463.66L320.084 483.898L322.417 487.696C322.605 488.011 323.095 488.634 323.178 488.976C323.509 490.334 323.228 492.588 323.236 494.01C323.238 494.247 323.1 494.53 323.24 494.721C323.33 494.843 324.706 495.224 325 495.328L332.875 497.754C335.305 498.418 344.925 500.353 346.12 502.172L346.306 502.469C348.071 505.176 349.33 508.309 350.566 511.289L337.043 507.481C332.639 506.23 328.069 504.673 323.529 504.062L323.434 509.058L314.076 494.817L300.262 473.642C297.506 477.118 295.384 481.085 293.015 484.826L286.18 495.3C283.506 499.737 281 504.426 277.482 508.264L277.142 504.336L277.018 495.732C277.047 493.73 277.037 491.225 277.672 489.312C278.676 486.293 280.97 483.274 282.694 480.612L290.945 467.925L296.311 459.38C297.48 457.523 298.629 455.524 300.081 453.875Z"/>
	<path fill="#CD1931" d="M299.887 197.875L300.462 197.777C300.712 197.975 300.728 197.974 300.981 198.25C303.627 201.13 305.575 205.273 307.705 208.56L317.671 223.781C319.536 226.671 322.027 230.022 323.19 233.25C323.755 234.818 323.495 237.165 323.481 238.849C325.611 239.108 327.736 239.962 329.806 240.532L340.894 243.522C342.28 243.919 343.774 244.328 344.976 245.147C347.656 246.971 349.557 251.947 351.149 254.8C350.154 254.922 348.462 254.312 347.451 254.084L333.772 250.413C330.274 249.384 326.864 248.237 323.227 247.813L323.392 252.374L314.175 238.879C309.673 231.796 305.543 224.238 300.274 217.705C298.158 219.369 296.515 222.902 295.069 225.216L283.637 243.256C281.631 246.34 279.923 249.594 277.362 252.269L277.332 252.055C277.068 249.725 277.157 247.245 277.109 244.9C277.037 241.342 276.601 236.479 277.65 233.073C278.237 231.165 279.541 229.331 280.614 227.67L286.188 219.125L294.105 206.464C295.927 203.552 297.712 200.539 299.887 197.875Z"/>
	<path fill="#CD1931" d="M163.339 361.125C163.87 360.949 163.777 360.911 164.375 361.083L164.546 368.888C164.827 369.044 164.726 369.026 165.021 369.057C173.46 369.948 182.214 368.443 190.644 369.415C193.855 369.785 197.12 370.796 200.216 371.706L212.162 375.234L245.136 384.876L206.79 396.076C202.1 397.422 197.194 399.531 192.375 400.233C190.094 400.566 187.755 400.45 185.458 400.408L177.25 400.41C174.847 400.388 172.527 400.24 170.125 400.53C172.677 401.608 175.854 402.09 178.555 402.833L194.633 407.378L212.2 412.207L225.573 416.008C225.962 418.557 225.527 421.573 225.404 424.158C217.4 423.057 209.547 420.141 201.744 418.08L137.635 400.549C140.466 399.889 143.29 400.055 146.174 400.071C151.73 400.104 157.464 400.463 162.992 399.877C165.873 399.571 168.534 398.553 171.296 397.756L187.634 392.899L208.513 386.831C210.73 386.182 213.136 385.9 215.261 385.035C211.261 383.493 206.894 382.483 202.776 381.256L175.647 373.243L167.125 370.59C165.934 370.193 164.612 369.473 163.375 369.327C160.529 368.99 157.499 369.205 154.636 369.239L142.749 369.249C139.968 369.242 137.21 369.335 134.436 369.067C137.178 367.802 140.443 367.332 143.368 366.538L163.339 361.125Z"/>
	<path fill="#CD1931" d="M157.276 0L187.303 0L187.016 0.226152C185.941 1.02684 183.684 1.44122 182.356 1.86567L163.25 7.55021C162.544 7.76501 159.395 8.42551 159.08 8.85426L182.625 15.9527L208.417 23.4611C209.774 23.8032 211.197 24.0794 212.593 24.1907C215.096 24.3903 217.632 24.1585 220.134 24.334C220.217 24.3398 220.951 24.3777 221.008 24.423C221.402 24.7329 221.916 25.7317 222.197 26.1661L225.332 31.4585L234.985 48.1769L240.444 57.6531C240.711 58.0715 241.285 59.2618 241.625 59.5011C241.796 59.622 242.603 59.6802 242.852 59.7259C242.077 59.8189 241.443 59.8915 240.666 59.7239C239.346 59.2292 237.736 59.5811 236.374 59.7354C234.745 59.9198 233.146 60.0299 231.503 59.9958C230.5 59.9749 228.331 60.0187 227.439 59.6251C224.994 58.5457 216.168 41.5501 212.716 37.9517L199.446 59.2769C198.964 59.385 197.97 59.1855 197.487 59.0653C193.49 58.071 188.847 59.0403 184.734 59.0238L204.409 24.7701C200.115 24.434 195.857 24.4091 191.552 24.4655C188.631 24.5037 185.442 24.7739 182.55 24.3472C178.037 23.6813 173.699 22.0268 169.316 20.7985L128.171 8.90433L146.658 3.67786C150.003 2.70889 154.153 1.99955 157.089 0.124746L157.276 0Z"/>
	<path fill="#CD1931" d="M0 121.09C0.540529 121.232 1.16401 121.398 1.625 121.724C2.30431 122.205 2.86118 123.154 3.35924 123.819C5.57962 126.783 7.15068 130.208 9.36048 133.17C9.65077 133.559 10.1234 134.341 10.5684 134.493L26.16 110.54C28.4877 106.954 30.3372 102.992 33.2344 99.814L47.8208 122.642L53.1125 130.753C54.1063 132.33 55.3194 134.147 55.8349 135.949C56.4935 138.251 56.1588 141.599 56.2164 144.033L61.7497 144.265C58.4414 145.731 54.7435 146.293 51.2499 147.195L34.5901 151.625L26.4476 154.074L12.618 157.784C8.50555 158.963 4.23459 160.54 0 161.11L-0 152.293L0 140.225L0 121.09Z"/>
	<path fill="#1E2E57" d="M0 140.225L2.32419 142.729C2.55548 142.999 3.06302 143.776 3.33318 143.938C3.86633 144.257 5.79565 144.213 6.42479 144.225C9.70146 144.288 14.0198 144.711 17.1815 143.878C20.7992 139.626 23.9297 134.254 26.8956 129.52L31.3895 122.392C31.8904 121.673 32.43 120.724 33.1482 120.229L48.2402 143.779C42.2611 144.408 36.0469 143.37 30.1562 144.557C23.9428 145.809 17.6334 147.726 11.541 149.479C7.82872 150.547 3.84449 151.933 -0 152.293L0 140.225Z"/>
	<path fill="#CD1931" d="M0 377.829L1.625 377.705C2.72127 378.671 3.5447 380.154 4.35359 381.376L10.3191 390.889L33.119 355.998L50.5089 382.75C52.154 385.362 54.7582 388.528 55.6827 391.459C56.4706 393.957 56.1852 397.261 56.2265 399.875L61.3723 400.391C55.6311 402.557 49.595 403.867 43.6862 405.487L15.0403 413.294C10.1641 414.574 5.00456 416.67 0 417.222L-0 408.813L0 396.618L0 377.829Z"/>
	<path fill="#1E2E57" d="M0 396.618C1.17177 397.789 2.66726 399.733 4.08749 400.526L17.0657 400.49C19.0528 398.024 20.6207 395.291 22.3106 392.621C25.728 387.222 29.156 381.44 32.9539 376.314L48.4898 400.179C42.9271 400.253 37.2476 399.686 31.7159 400.432C28.185 400.908 24.622 402.036 21.1935 403.001L12.9716 405.213C8.66528 406.479 4.39827 407.882 -0 408.813L0 396.618Z"/>
	<path fill="#D9213B" d="M242.852 59.7259C244.605 59.6695 248.515 59.9663 249.947 59.1479C248.453 55.4648 245.846 52.0268 243.756 48.6434L228.49 24.6538L236.83 24.4544C238.362 24.438 240.231 24.3185 241.701 24.7548L246.411 32.2961L258.382 51.3558L261.799 57.75C262.121 58.4256 262.512 59.8248 262.956 60.3669C263.151 60.6063 265.329 61.173 265.731 61.3088C275.065 64.4679 284.531 66.7852 294.051 69.2861L315.216 75.2947L335.791 80.6294L344.074 82.8156C346.921 83.7069 349.47 85.0821 352.183 86.2841L341.958 86.1875C337.06 86.2874 332.254 86.8052 327.353 86.2815C320.098 85.5063 313.554 82.9434 306.577 81.0956L277.165 73.3563L265.096 69.8999C260.629 68.5278 255.762 66.2299 251.077 66.0341C246.944 65.8614 242.35 68.0543 238.375 69.1491L219.927 74.3857L200.993 79.5281L181.444 84.9318C175.83 86.3368 170.135 86.2336 164.402 86.1966C161.531 86.178 158.545 86.0336 155.713 86.5679C155.233 86.4991 154.754 86.4593 154.304 86.2703L154 86.1275C153.106 85.791 152.787 85.5492 152.128 84.8323C154.155 83.6331 156.546 82.9595 158.791 82.3018L171.589 79.0175L191.923 73.5099L209.672 68.3384L225.456 64.169L240.666 59.7239C241.443 59.8915 242.077 59.8189 242.852 59.7259Z"/>
	<path fill="#CD1931" d="M384.462 264.33C385.379 264.183 386.175 264.28 387.073 264.459L406.345 269.141L434.096 275.848L445.75 278.805C448.009 279.376 450.005 279.551 452.125 280.612L452.125 281.049C451.34 281.281 450.653 280.911 449.875 280.796L446.971 280.51L471.298 320.382L474.397 316.153C474.549 315.958 474.64 315.687 474.859 315.571C475.15 315.417 476.517 315.569 476.942 315.571C480.249 315.58 483.69 316.004 486.969 315.571L487.355 315.517L471.389 341.715C470.093 338.757 468.137 336.082 466.422 333.362L459.864 322.693L437.796 286.903L433.606 281.094C431.128 280.781 428.652 280.903 426.161 280.843C422.679 280.76 419.387 280.515 415.953 279.882C413.941 279.511 412.056 278.834 410.076 278.357L396.403 275.043L389.485 273.271C388.142 272.947 386.705 272.506 385.315 272.539C382.366 272.608 379.15 273.802 376.268 274.501C367.989 276.512 359.618 279.068 351.24 280.542C348.77 280.976 346.108 280.628 343.608 280.632L331.338 280.723C333.77 284.675 337.034 288.312 338.824 292.619C339.854 295.097 339.489 298.576 339.517 301.229L339.606 314.125L318.206 280.093L384.462 264.33Z"/>
	<path fill="#CD1931" d="M384.368 8.05961C386.304 7.89011 388.181 8.37259 390.064 8.77384L399.402 11.1591L418.244 15.7803L443.987 22.1067C447.155 22.955 449.851 23.2593 452.87 24.6848C450.821 24.8706 448.66 24.608 446.598 24.5455L471.454 64.3437C472.622 62.6892 473.529 60.9954 474.958 59.5348L487.444 59.4056C485.602 63.6609 482.4 67.7934 479.932 71.7392C477.062 76.328 474.665 81.1013 471.227 85.3134L437.496 30.037C436.361 28.1971 435.138 26.3911 433.719 24.7586C427.439 23.9233 421.199 24.9373 414.918 23.4443L390.889 17.5575C388.944 17.1407 386.534 16.302 384.571 16.4581C381.153 16.7299 377.377 18.0052 374.058 18.8758C367.004 20.7266 359.667 22.8388 352.505 24.1065C349.678 24.6067 346.776 24.5104 343.915 24.5372L331.709 24.5221L338.717 36.172C338.987 36.709 339.317 37.3151 339.421 37.913C339.874 40.5175 339.53 43.7855 339.534 46.4562L339.609 54.0451C339.583 55.2019 339.642 56.419 339.275 57.524L338.847 57.6394C337.469 56.5474 336.916 55.0929 336.153 53.549L333.552 48.6463L327.39 38.7265C324.377 33.7444 321.555 28.6261 317.811 24.1411L384.368 8.05961Z"/>
	<path fill="#D9213B" d="M339.534 113.241L359.02 111.84C349.2 108.168 338.993 105.628 328.875 102.917L289.656 92.4926L279.027 89.4976L261.282 85.5781C258.289 84.942 254.994 83.869 251.961 83.5896C248.13 83.2368 242.39 84.6059 238.852 86.2249C233.609 88.6239 230.836 94.7128 228.154 99.5104L222.372 109.349C221.664 110.445 220.589 112.312 219.504 113.019C218.08 111.26 216.621 109.51 215.392 107.607C213.697 104.982 212.344 102.17 210.735 99.4982L206.648 93.2531L202.869 86.7488C213.27 85.2877 223.202 82.1708 233.26 79.2094L244.028 76.1468C246.011 75.6292 248.042 75.0025 250.099 74.9065C254.233 74.7134 258.973 76.7276 262.95 77.8348L279.397 82.3816L293.727 85.8754C298.074 86.7496 302.524 87.3205 306.801 88.4994L348.755 99.9835C357.617 102.434 366.135 105.332 375.232 106.861C375.086 105.582 374.391 102.062 374.883 101.054C379.815 101.992 384.434 103.386 389.25 104.759C391.961 105.531 394.733 106.056 397.246 107.375L397.672 107.586C398.805 108.378 399.903 111.858 400.553 113.125C401.15 114.288 401.962 115.398 402.409 116.625C402.253 116.706 402.116 116.851 401.94 116.869C401.124 116.95 399.099 116.179 398.243 115.951L383.14 111.682C381.188 111.094 379.232 110.398 377.218 110.07C376.923 110.022 376.079 109.819 375.818 109.875C375.645 109.912 375.566 110.125 375.44 110.25C375.447 110.729 375.625 111.652 375.261 111.978C374.036 113.073 370.712 113.859 369.086 114.367L359.868 116.857L339.509 122.557L327.645 126.049C326.501 126.365 324.716 127.101 323.543 127.008L323.264 126.955C322.996 126.364 322.999 125.781 322.965 125.145C322.409 123.388 322.586 121.07 322.844 119.287C323.003 118.189 322.468 116.842 321.875 115.958C320.693 115.384 318.36 113.38 317.226 113.338L316.884 113.343L316.57 113.081C320.852 113.292 325.217 112.838 329.5 112.663C331.107 112.598 333.81 112.872 335.23 112.15L337.655 112.99C338.282 113.224 338.875 113.225 339.534 113.241Z"/>
	<path fill="#4D1D4A" d="M217.525 86.3421C219.454 86.158 221.399 86.5086 223.311 86.7608C222.503 88.4984 221.876 90.2438 220.846 91.875L220.25 92.4831L219.625 92.426C217.839 90.9918 216.709 88.8414 215.861 86.75L216.125 86.4249L217.525 86.3421Z"/>
	<path fill="#35244B" d="M335.23 112.15L337.655 112.99C338.282 113.224 338.875 113.225 339.534 113.241L332.605 115.478C329.769 116.384 325.122 117.212 323.288 119.625C322.821 121.397 322.955 123.324 322.965 125.145C322.409 123.388 322.586 121.07 322.844 119.287C323.003 118.189 322.468 116.842 321.875 115.958C320.693 115.384 318.36 113.38 317.226 113.338L316.884 113.343L316.57 113.081C320.852 113.292 325.217 112.838 329.5 112.663C331.107 112.598 333.81 112.872 335.23 112.15Z"/>
	<path fill="#CD1931" d="M347.766 0L382.282 0C381.085 0.877239 378.506 1.27975 377.045 1.6608L363.625 5.01914L334.859 12.0447L322.675 15.194L298.265 21.0925C295.46 21.829 292.393 22.3599 289.679 23.3369C287.374 24.1669 284.918 24.2748 282.487 24.4124C279.653 24.5728 276.866 24.6829 274.03 24.4942L295.669 59.6489C297.284 60.1231 299.239 59.9725 300.917 59.9823L309.784 60.0142C306.629 53.219 302.631 47.0185 298.691 40.6677L288.61 24.6413C292.311 24.31 296.111 24.2612 299.81 24.6298C300.096 24.6584 301.3 24.6841 301.507 24.8243C302.387 25.4208 303.86 28.3826 304.48 29.3699L316.13 48.0491C318.338 51.7113 320.314 55.7073 322.771 59.193C323.176 59.7675 323.632 60.2544 324.197 60.6742C326.149 62.1253 329.111 62.6542 331.438 63.2101L339.892 65.3339L355.147 69.5467C362.144 71.3502 369.176 72.9103 376.041 75.2052L375.657 83.2831L368.539 81.7808L359.042 78.875L345.717 75.1761L302.32 63.7524C300.669 63.328 299.063 62.8015 297.497 62.125C296.404 61.6526 295.361 61.0645 294.194 60.7855C290.99 60.0198 287.548 59.9625 284.292 59.3765C282.822 59.1118 282.244 59.0766 281.256 57.875C278.853 54.9524 277.414 50.8351 275.478 47.5322L268.904 37.0717L261.19 25.0759C260.462 24.6894 259.428 24.6849 258.617 24.6157C255.937 24.387 253.238 24.633 250.572 24.2373C252.769 23.2694 255.417 23.0364 257.764 22.5103L269.68 19.6423L326.625 5.64712L342.162 1.88957C343.947 1.39153 345.966 1.06204 347.567 0.123677L347.766 0Z"/>
	<path fill="#CD1931" d="M512 163.175L499.402 166.182C498.385 166.403 497.448 166.539 496.408 166.375C493.271 165.881 490.053 164.746 486.988 163.894L472.627 159.929C470.947 159.436 468.294 159.072 466.875 158.155C466.653 157.744 466.566 157.458 466.595 156.986C466.705 155.204 466.981 154.759 468.759 154.464C469.166 154.397 469.564 154.422 469.885 154.148C469.007 152.388 467.881 150.494 467.284 148.625C466.929 147.511 466.878 146.306 466.585 145.172C466.207 143.711 465.496 142.342 464.805 141.008C462.539 136.636 459.737 132.502 457.233 128.259L436.805 94.6972C437.791 94.3667 439.201 94.5589 440.25 94.5506L447.887 94.3324C444.725 90.2933 442.104 85.5558 439.462 81.1653C434.107 72.2671 428.96 63.1957 423.012 54.6774L420.156 59.2505C415.892 59.4247 411.548 59.7266 407.301 59.2071L423.133 33.5065L460.542 94.2545C456.857 94.3062 452.853 94.7861 449.217 94.2394L448.792 94.1722L450.372 96.183C453.369 100.095 455.487 104.619 458.037 108.822L464.166 118.428C465.081 119.955 466.182 121.662 466.75 123.354C467.121 124.46 466.844 125.82 466.694 126.953C469.419 132.451 472.843 137.327 476.038 142.532L480.657 150.171C481.372 151.322 482.448 153.247 483.633 153.95C485.084 154.812 487.473 155.264 489.12 155.77C491.496 156.5 494.14 157.478 496.625 157.657C498.024 157.758 499.585 157.289 500.936 156.961L509.497 154.588L501.465 154.943C500.57 154.337 499.808 152.998 499.172 152.125C495.15 146.6 491.797 140.424 488.226 134.593L478.922 119.661C483.244 119.298 487.673 119.665 491.987 119.981C495.413 126.612 500.057 133.043 504.096 139.338C506.222 142.652 508.112 146.305 510.376 149.498C510.779 150.065 511.214 150.503 511.803 150.885L512 151.004L512 163.175Z"/>
	<path fill="#CD1931" d="M512 419.04L498.811 422.369C497.815 422.582 496.904 422.627 495.895 422.459C492.975 421.973 489.938 420.804 487.061 420.018L474.291 416.53C471.994 415.887 469.161 415.395 467.159 414.093C466.617 413.259 466.469 412.744 466.468 411.75C467.209 410.858 469.005 410.749 470.144 410.475C469.107 408.929 467.988 407.154 467.409 405.381C466.992 404.1 466.939 402.664 466.652 401.345C466.283 399.654 465.305 397.96 464.458 396.458L458.2 386.502L451.266 374.75L436.692 350.75C440.416 350.27 444.454 350.533 448.208 350.539C444.53 346.339 441.792 340.911 438.874 336.162L422.996 310.527C422.074 312.229 421.179 313.822 419.926 315.309C415.963 316.169 411.127 315.622 407.066 315.608L422.818 290.168C424.229 291.091 425.671 293.625 426.604 295.063L433.335 306.165L452.786 337.992C455.277 342.216 458.503 346.055 460.629 350.482L448.976 350.706C453.251 355.628 456.342 361.838 459.631 367.437C461.755 371.053 464.112 374.49 466.078 378.202C467.153 380.231 467.028 382.812 468.019 385.026C470.424 390.397 473.943 395.171 476.995 400.173L480.994 406.872C481.661 407.971 482.443 409.41 483.534 410.146C484.468 410.776 485.979 411.015 487.064 411.343C490.001 412.233 494.472 414.12 497.465 413.884C498.934 413.769 500.444 413.271 501.871 412.912L508.899 411.131C506.425 410.726 503.532 411.011 501.009 411.008L478.638 375.992C482.62 375.706 486.693 375.617 490.682 375.806C491.023 375.823 491.576 375.75 491.833 375.995C493.676 377.759 495.147 381.232 496.499 383.468L503.634 394.944C506.209 399.117 508.749 403.441 512 407.129L512 419.04Z"/>
	<path fill="#CD1931" d="M512 436.35C509.714 436.686 504.446 437.211 502.851 438.877L502.629 439.125C501.042 440.87 499.915 443.091 498.638 445.072L493.373 452.986C491.721 455.577 490.232 458.299 488.301 460.694L488.167 447.279C488.176 445.202 488.045 442.84 488.56 440.818C488.813 439.822 489.442 438.818 489.925 437.914L466.9 431.744L427.288 497.928L427.076 487.747C422.281 488.522 417.672 490.199 413 491.491L388.478 498.435C384.098 499.696 379.749 501.196 375.232 501.861L375.228 493.782C375.493 493.357 375.573 493.425 376.023 493.281L392.442 488.646L414.945 482.153C416.515 481.715 425.382 479.73 426.167 478.859C426.735 478.229 427.07 477.128 427.441 476.346L429.795 471.793L441.319 452.385C443.147 449.402 457.161 427.43 457.189 425.928C457.209 424.827 437.076 392.216 434.523 387.994C432.241 384.22 428.839 379.95 427.554 375.75C426.799 373.283 426.946 370.37 426.923 367.809L427.01 354.598L442.288 380.027L448.129 389.234L459.806 408.875L464.489 416.373C465.109 417.338 466.129 418.564 466.531 419.622C466.863 420.494 466.728 421.761 466.686 422.687L488.786 429.053C491.405 429.769 495.072 431.309 497.745 431.121C499.271 431.014 501.042 430.34 502.525 429.929L512 427.452L512 436.35Z"/>
	<path fill="#CD1931" d="M512 179.95C509.517 180.328 506.752 180.926 504.39 181.784L504 181.933C503.105 182.265 502.556 182.685 501.922 183.411C500.532 185.003 499.519 187.213 498.444 189.034L493.196 197.335C491.747 199.614 490.381 202.063 488.54 204.052C488.669 198.738 487.677 193.409 488.177 188.074C488.393 185.767 488.626 183.916 490.01 181.971L490.233 181.663L476.554 178.115C473.821 177.359 470.427 175.723 467.625 175.764C466.366 176.333 465.643 177.497 464.879 178.606C462.646 181.849 460.937 185.537 458.849 188.893L438.468 222.421L432.545 232.374C430.865 235.251 429.316 238.362 427.048 240.824L426.931 231.396L410.75 235.897L391.767 241.313C386.314 242.901 380.897 244.688 375.29 245.653L375.247 237.385L426.236 222.793C427.337 220.367 428.508 217.942 429.825 215.625L437.06 203.717L452.512 178C453.007 177.178 457.356 170.444 457.311 170.003C457.283 169.728 456.832 168.989 456.696 168.718C455.774 166.889 454.653 165.154 453.592 163.403L441.528 143.854L433.025 129.389C431.145 126.215 428.364 122.675 427.358 119.127C426.68 116.739 426.954 113.625 426.934 111.143L426.887 98.9097C427.786 99.4603 428.97 101.554 429.596 102.46C435.276 110.675 440.019 119.735 445.264 128.25L458.063 149.368L463.82 159.025C464.679 160.467 465.703 161.89 466.469 163.375C466.781 163.979 466.745 164.435 466.616 165.086C466.513 165.601 466.441 165.857 466.623 166.375C471.976 168.273 477.471 169.593 482.928 171.151L491.61 173.585C493.487 174.091 495.574 174.775 497.535 174.694C499.042 174.631 500.74 174.089 502.214 173.74L512 171.346L512 179.95Z"/>
	<path fill="#CD1931" d="M249.835 330.565C254.782 330.939 260.129 333.079 264.891 334.425L289.103 341.014C292.571 341.955 296.062 342.176 299.597 342.716C302.206 343.115 304.767 343.794 307.312 344.484L355.364 357.753L375.121 362.991L375.132 357.336C379.017 358.008 382.797 359.116 386.604 360.125C389.528 360.9 392.509 361.557 395.337 362.649C399.165 364.127 401.21 369.552 402.804 373.098C396.439 371.945 390.102 369.958 383.875 368.206L378.279 366.616C377.35 366.365 376.287 365.96 375.322 365.945L375.555 368.922C370.913 369.352 365.959 371.174 361.5 372.464L341.841 377.963C335.77 379.744 329.837 381.895 323.555 382.794L323.203 374.533L340.766 369.625C337.701 369.184 334.615 369.252 331.527 369.248L318.918 369.287C316.609 369.295 314.178 369.458 311.893 369.145C306.766 368.445 301.505 366.386 296.5 365.022L261.105 355.31L260.955 352.285L260.742 346.597L281.308 352.254L319.217 362.704L331.22 366.075C334.334 366.863 337.79 367.389 340.771 368.565C342.404 369.209 344.106 369.12 345.835 369.137L353.911 369.092L363.488 369.136C359.535 367.474 355.149 366.471 351.024 365.263L322.56 357.402L290.5 348.567L272.835 343.688C268.784 342.688 264.659 342.636 260.625 341.707L253.596 339.917C252.333 339.609 250.869 339.177 249.562 339.318C246.972 339.597 244.297 340.627 241.814 341.384C240.285 341.85 238.319 342.24 237.057 343.236C234.883 344.95 233.131 348.593 231.633 350.956L224.625 361.952C223.062 364.367 221.579 366.821 219.738 369.039C218.227 367.268 217.017 365.238 215.713 363.312L206.933 349.777C205.38 347.375 203.945 344.958 202.171 342.703C207.518 342.216 212.233 340.796 217.38 339.4L238.808 333.44C242.463 332.442 246.116 331.298 249.835 330.565Z"/>
	<path fill="#35244B" d="M214.982 342.397L224.135 342.766L221.792 346.576C221.176 347.313 220.433 348.395 219.5 348.684C218.268 348.099 215.895 343.644 214.982 342.397Z"/>
	<path fill="#CD1931" d="M229.068 280.875C230.452 280.664 231.946 280.767 233.351 280.751L241.349 280.789C244.54 284.357 246.425 288.749 248.98 292.75L257.307 305.906L261.075 311.64C261.807 312.766 262.616 313.808 262.95 315.125L262.643 315.625C262.15 315.724 261.779 315.805 261.318 316.015C262.303 317.06 290.984 324.38 294.796 325.428L345.878 339.575L355.912 341.802C355.182 342.201 354.004 342.296 353.182 342.396C350.53 342.716 347.719 342.553 345.045 342.554L332.992 342.532C330.619 342.52 328.141 342.661 325.793 342.343C320.257 341.593 314.704 339.584 309.303 338.146L271.496 327.769L257.266 323.782C255.357 323.254 253.141 322.388 251.19 322.207C249.178 322.021 246.998 322.784 245.067 323.285L234.116 326.359L215.91 331.495L191.135 338.197L179.524 341.461C172.108 343.248 164.683 341.778 157.255 342.653C154.088 343.026 150.883 344.039 147.816 344.879L130.151 349.788L86.6191 361.752C76.7777 364.538 66.7044 368.108 56.5588 369.428C55.4839 363.911 51.7054 358.929 48.7205 354.223L41.139 342.172C44.9863 342.427 49.2029 341.95 52.9755 342.645C53.6301 342.766 54.3251 342.891 54.8023 343.371C55.3105 343.882 55.6402 344.488 55.8074 345.189C56.2018 346.844 56.02 348.883 56.04 350.588L56.0805 361.369L100.905 349.259L124.435 342.871C131.189 341.365 138.554 343.344 145.375 342.047C152.125 340.763 158.908 338.413 165.553 336.596L209.751 324.334L233.545 317.954L238.301 316.654C238.947 316.474 239.952 316.294 240.5 315.939L240.875 315.636C243.906 315.974 247.306 315.541 250.365 315.397L228.875 281.391L229.068 280.875Z"/>
	<path fill="#CD1931" d="M224.695 241.625C225.225 241.589 225.121 241.527 225.625 241.849L225.636 249.456C222.715 249.905 219.879 250.83 217.029 251.592L202.971 255.003C198.931 255.832 194.901 255.194 190.946 255.889C187.643 256.469 184.355 257.708 181.116 258.592L165.162 263.197C163.02 263.845 160.859 264.321 158.746 265.073L192.966 275.082C198.105 276.635 203.476 278.777 208.73 279.807C212.797 280.605 216.874 280.292 220.962 280.793C223.794 284.191 225.713 288.461 227.914 292.284L241.435 315.584L226.854 315.612C221.544 309.057 218.038 300.987 213.057 294.126C210.594 296.861 208.759 300.533 206.819 303.672L199.414 315.319L210.875 315.83C208.868 316.823 206.291 317.216 204.114 317.809L190.845 321.46L148.28 333.142C143.745 334.309 139.355 336.084 134.687 336.607L134.727 329.662L95.9358 340.409C93.1327 341.214 90.285 342.066 87.3906 342.467C84.1957 342.91 80.7767 342.724 77.5535 342.749L57.0018 342.581C59.7797 341.138 63.4315 340.719 66.4672 339.898L86.6736 334.288L109.398 328.019L123.521 324.037C127.255 323.005 130.867 321.836 134.75 321.522L134.702 328.216C136.015 328.099 137.413 327.603 138.691 327.265L147.087 324.932L182.57 315.594C183.21 315.451 184.205 315.355 184.788 315.091C185.556 314.743 190.43 305.274 191.291 303.735L197.181 293.625L204.416 281.085L191.868 280.808C189.062 280.803 186.066 280.978 183.285 280.592C177.234 279.752 171.377 277.61 165.524 275.916L128.872 265.243C132.995 263.588 137.463 262.599 141.717 261.327C147.828 259.501 154.035 257.332 160.267 255.994C162.676 255.478 165.179 255.453 167.613 255.08C170.825 254.588 174.026 253.71 177.188 252.952L202.524 246.699C209.823 244.84 217.256 242.789 224.695 241.625Z"/>
	<path fill="#CD1931" d="M512 280.749L493.932 280.72C490.713 280.679 487.535 280.709 484.351 280.172C480.507 279.524 476.713 278.412 472.934 277.462L455.603 273.172L407.755 261.475L392.75 257.77C390.556 257.239 387.874 256.294 385.625 256.279C382.329 256.256 378.493 257.632 375.276 258.414L358.073 262.685L343.911 266.021L311.506 273.977L293.541 278.441C290.777 279.141 288.016 280.111 285.194 280.53C281.529 281.073 277.527 280.811 273.816 280.853L278.982 288.535L291.917 309.461C293.025 311.223 294.107 313.763 295.625 315.159C297.022 315.731 298.728 315.618 300.227 315.65L310.367 315.502L288.611 281.099C292.273 279.954 297.573 280.696 301.43 280.817C303.92 283.865 305.695 287.597 307.775 290.93L316.993 305.657C319.018 308.846 322.003 312.491 323.149 316.103L323.238 316.404L357.668 326.056C363.682 327.683 369.794 329.805 375.923 330.839L375.842 339.444C373.018 339.111 370.322 338.214 367.587 337.473L354.663 333.98L307.003 320.907C300.09 319.089 293.463 316.852 286.375 315.725C285.487 315.583 283.431 315.512 282.78 315.135C282.17 314.782 281.524 313.575 281.136 312.971L277.089 306.43L267.741 291.625C265.5 287.987 263.457 284.202 260.947 280.739C257.464 280.378 253.774 280.846 250.252 280.774C252.141 279.798 254.429 279.47 256.495 278.997L265.4 276.894L299.685 268.525L330.443 260.938L347.611 256.793C349.327 256.428 350.997 255.882 352.74 255.64C360.031 254.629 367.628 255.014 374.98 255.008C378.65 255.006 382.501 255.131 386.125 254.456C388.82 253.954 391.624 252.913 394.285 252.179L412.86 246.877C417.582 245.496 422.23 243.991 427.078 243.102L427.119 251.551L415.406 254.573C416.181 255.44 433.465 259.262 435.671 259.808L483.398 271.552L502.23 276.244L512 278.065L512 280.749Z"/>
	<path fill="#CD1931" d="M0 425.35L147.36 385.138C143.588 383.444 139.398 382.496 135.432 381.336L113.18 374.948C107.296 373.275 101.359 370.92 95.3604 369.803C91.3421 369.055 87.2887 369.316 83.2327 368.886L164.268 346.762L164.626 355.247L114.5 369.158C117.379 369.342 120.388 368.908 123.207 369.327C128.188 370.067 133.408 372.058 138.268 373.451L176.623 384.906L142.93 394.903C136.81 396.709 130.296 399.295 124 400.215C119.074 400.936 114.049 399.95 109.143 400.346C111.803 401.478 114.874 402.071 117.669 402.873L139.53 408.875L203.974 426.744L203.676 427.054C200.828 430.05 199.27 434.007 197.248 437.559L187.77 454.102C186.467 456.417 185.27 459.424 183.432 461.32C182.763 462.01 182.069 462.145 181.135 462.178L171.696 462.184C170.109 462.173 168.279 462.36 166.747 462.04C162.155 455.079 158.164 447.641 154.013 440.405C151.405 435.86 149.01 430.917 145.413 427.072L155.301 427.019C157.132 427.029 159.097 426.9 160.893 427.248C163.184 429.975 164.886 432.965 166.72 436C169.356 440.364 171.957 444.81 174.906 448.971L188.217 427.381L180.799 427.201C178.879 427.19 176.884 427.304 174.978 427.056C170.024 426.409 164.912 424.5 160.06 423.237L116.311 411.215L106.349 408.474C104.205 407.879 101.585 406.985 99.375 407.037C95.8093 407.119 91.5082 409.093 87.9845 410.002L46.1425 421.506L32.75 425.239C30.4744 425.822 28.2163 426.52 25.875 426.776C21.0768 427.299 15.6735 427.602 10.8655 427.248L32.4691 461.731L19.5066 462.132L7.4417 442.692C5.16931 438.999 2.80636 435.105 -0 431.787L0 425.35Z"/>
	<path fill="#CD1931" d="M0 169.127L146.856 129.184C142.379 126.75 137.77 125.887 132.951 124.456L112.105 118.371C106.576 116.787 100.997 114.626 95.375 113.492C91.5823 112.728 87.6214 112.724 83.7651 112.665C87.2454 111.328 91.0119 110.559 94.6019 109.536L122.021 102.073L148.022 95.0867C153.597 93.5807 158.936 91.8633 164.642 90.8566C164.679 93.5006 164.552 96.2637 165.023 98.8704L141.32 105.578L121.186 110.88C119.352 111.415 116.831 111.868 115.213 112.84C118.429 113.063 121.684 112.919 124.868 113.457C127.037 113.823 129.09 114.525 131.202 115.112L144.448 119.083L156.5 122.783L167.024 125.518L176.655 128.865L161.802 133.38L151.395 136.1L134.707 141.046C131.465 142.002 128.13 143.144 124.821 143.839C121.783 144.477 118.648 144.283 115.562 144.224C114.031 144.195 112.361 143.996 110.875 144.402C111.368 144.971 112.871 145.247 113.625 145.482L124.516 148.52L194.288 167.638L203.949 170.501C199.758 176.249 196.462 182.494 192.941 188.654C189.671 194.375 186.208 200.063 183.357 206.004L172.893 205.989C170.896 205.992 168.514 206.141 166.579 205.68L153.275 183.056C150.926 178.92 148.989 174.81 146.071 171.006L154.827 170.817C156.734 170.768 158.687 170.61 160.576 170.911C162.772 173.154 164.318 175.856 165.923 178.529L171.268 187.39C172.145 188.82 173.6 191.702 174.941 192.571L182.144 180.559C184.117 177.406 185.994 174.233 188.37 171.36C182.879 170.812 177.434 171.508 171.999 170.3C165.92 168.948 159.96 166.936 153.951 165.29L113.976 154.34L104.435 151.663C102.942 151.262 101.154 150.642 99.6163 150.662C98.1198 150.682 96.4177 151.372 94.9785 151.762L83.2954 155.067L46.0776 165.345L31.7828 169.301C30.2195 169.736 28.5783 170.497 27 170.75C24.446 171.16 21.7022 171.048 19.1193 171.073C16.2454 171.101 13.3975 171.249 10.529 170.981L32.3812 205.738L19.9264 205.967C17.344 203.022 15.4836 199.472 13.4361 196.142L5.83479 183.887C4.19417 181.176 2.38999 177.318 -0 175.297L0 169.127Z"/>
	<path fill="#CD1931" d="M373.809 124.067C374.478 123.711 374.877 123.546 375.045 122.75L375.125 121.321C375.292 121.246 375.442 121.101 375.625 121.098C376.452 121.082 377.79 121.557 378.619 121.755L389.741 124.909L411.5 130.963L426.979 135.415C427.162 137.149 427.036 139.826 427.732 141.375C428.08 142.15 428.787 142.916 429.278 143.619L431.648 147.278L438.926 159.739L444.032 167.804C444.275 168.187 445.404 169.843 445.402 170.256C445.4 170.722 443.234 173.838 442.894 174.409L433.389 190.253C431.763 192.878 430.281 195.604 428.334 198.013L426.841 199.708C427.117 197.899 427.411 196.076 427.438 194.243L427.251 184.076C427.273 182.146 427.268 180.306 427.936 178.462C429.06 175.365 431.198 172.808 432.595 169.859C430.895 167.589 428.273 164.683 427.625 161.93L427.331 162.001C426.996 163.229 427.05 164.426 427.055 165.685C427.056 165.79 427.101 166.878 427.064 166.931C426.971 167.064 426.798 167.119 426.654 167.194C425.45 167.819 423.63 168.174 422.306 168.599L402.693 174.149L385.327 178.975C382.032 179.878 378.764 180.94 375.378 181.465L375.347 186.566C375.364 187.354 375.518 188.424 375.289 189.165L342.359 198.626C350.797 200.416 359.01 203.136 367.318 205.441L372.742 206.884C373.641 207.113 374.853 207.251 375.628 207.756L375.313 217.715L340.34 208.577L330.614 206.006C328.812 205.539 326.724 204.904 324.875 204.746C323.983 204.67 323.397 204.893 322.625 205.31L300.366 171.533C297.091 175.464 294.643 180.06 291.935 184.387L283.798 197C281.804 200.234 279.921 204.097 277.299 206.864L277.072 193.607L225.391 179.341L225.448 170.278C232.055 172.675 238.926 174.349 245.703 176.182L263.741 181.273C268.397 182.562 273.828 183.476 278.161 185.567L287.287 171.479L295.265 158.771C296.859 156.248 298.353 153.49 300.335 151.256C302.72 154.255 304.575 157.533 306.625 160.758L318.03 178.717C319.375 180.769 320.626 183.063 322.16 184.968C322.528 185.425 322.57 185.546 323.163 185.665C323.776 184.467 322.569 179.18 323.534 178.869L347.93 172.058L364.567 167.338C368.226 166.325 371.868 165.232 375.617 164.602L375.207 173.043L411.898 162.871C416.834 161.504 422.179 159.427 427.236 158.814L427.263 149.022C427.292 147.452 427.609 145.365 427.241 143.855L401.9 137.122C398.179 136.081 377.02 129.442 375.14 130.27L374.925 130.252C374.51 128.394 374.469 126.519 374.547 124.625L373.809 124.067Z"/>
	<path fill="#1E2E57" d="M374.861 173.375L374.961 173.438C375.627 174.362 375.135 178.413 375.11 179.723C372.919 179.897 370.859 180.46 368.725 180.948L355.89 184.282L334.945 189.679L328.305 191.466C326.868 191.843 325.272 192.371 323.786 192.125C323.226 191.023 323.187 189.317 323.029 188.088C325.424 187.127 328.067 186.453 330.549 185.717L344.375 181.743L374.861 173.375Z"/>
	<path fill="#CD1931" d="M375.128 376.915L426.788 391.324C426.862 393.175 427.159 397.453 428.288 398.9C431.251 402.701 433.673 407.047 436.183 411.166L445.407 426.321C445.084 427.306 444.281 428.262 443.709 429.139L440.428 434.345C436.154 441.371 432.566 449.151 427.374 455.56C427.719 450.776 427.252 445.87 427.29 441.064C427.309 438.621 427.244 435.984 428.176 433.69C429.186 431.205 431.123 428.846 432.437 426.479C431.788 425.357 427.919 418.353 427.375 418.086C426.648 419.933 427.364 421.754 427.004 423.588L390.315 433.822C385.616 435.136 380.579 437.148 375.77 437.765C375.35 437.819 375.545 437.727 375.223 438.014L375.532 445.371L342.361 454.557L375.592 463.834L375.458 473.822L359.673 469.824L335.889 463.646L328.404 461.614C327.178 461.282 325.689 460.722 324.418 460.75C323.445 460.771 323.251 461.226 322.64 461.875C322.515 461.831 322.375 461.815 322.264 461.742C321.934 461.527 321.02 459.719 320.779 459.336L313.49 447.682L300.383 427.564C297.843 430.369 295.977 434.213 293.975 437.445L287.233 447.625L280.72 458.03C279.81 459.47 278.988 461.355 277.614 462.382C277.079 461.48 277.255 459.988 277.225 458.928L277.112 449.888L257.94 444.591L225.371 435.557L225.401 426.946L277.993 441.769C280.922 437.863 283.364 433.63 285.955 429.5L292.346 419.652C294.857 415.586 297.121 411.168 300.389 407.653C303.53 411.764 306.04 416.162 308.811 420.518L315.702 431.029C318.091 434.868 320.299 439.17 323.325 442.541L323.304 435.255L375.254 420.639L375.312 426.475C375.314 427.275 375.166 428.358 375.481 429.075C379.387 428.3 383.281 427.069 387.132 426.029L410.239 419.539C415.865 417.88 421.6 415.999 427.386 415.026L427.453 400.256C427.158 400.035 427.318 400.107 426.889 400.034C422.02 399.2 417.247 397.532 412.5 396.17L398.788 392.39L385.426 388.535C382.69 387.778 378.844 386.222 376.009 386.779L375.872 387.079C375.489 387.778 375.052 388.16 374.337 388.512C370.853 390.227 366.722 391.167 362.992 392.216L348.722 396.208L323.469 403.332L323.254 394.785C324.105 394.278 325.386 394.153 326.355 393.905L332.004 392.29L375.113 379.97L375.128 376.915Z"/>
	<path fill="#1E2E57" d="M374.79 429.375L375.221 429.625L375.23 435.868C370.111 436.143 364.634 438.131 359.688 439.468L339.259 444.73C334.011 446.093 328.779 447.726 323.413 448.525C323.153 447.341 322.831 445.702 322.975 444.505C327.188 442.582 331.634 441.516 336.087 440.316L349.232 436.606L365.764 431.939C368.783 431.075 371.721 430.067 374.79 429.375Z"/>
	<path fill="#CD1931" d="M145.906 484.41L110.991 474.855C110.844 472.63 110.78 470.454 110.867 468.225C110.893 467.544 110.803 466.54 111.082 465.944L159.085 479.266L182.967 485.802C186.09 486.635 189.271 487.876 192.465 488.334C196.05 488.848 199.771 488.624 203.379 488.546L213.996 488.573C211.174 487.425 208.001 486.765 205.058 485.948L189.256 481.539L128.875 464.73L119.099 462.402C117.646 462.119 115.297 462.074 113.984 461.536C113.641 461.396 113.021 460.519 112.786 460.202C111.23 458.097 109.903 455.871 108.519 453.653L95.1557 431.87C94.1036 430.225 92.9242 428.693 91.7041 427.17C95.9695 426.995 100.395 426.571 104.641 427.037C108.039 431.193 110.61 435.93 113.386 440.504L120.759 452.272C122.497 455.126 124.262 459.013 126.631 461.358C127.05 461.773 127.671 461.881 128.233 461.941L146.267 461.76L132.264 439.801C129.75 435.787 127.574 430.465 123.981 427.299C120.113 427.151 116.104 427.217 112.289 426.55C109.924 426.137 107.633 425.549 105.323 424.909C103.596 424.431 101.728 423.787 99.9196 423.829C96.8628 423.901 93.3347 425.595 90.3282 426.316C88.4847 426.758 86.5096 426.769 84.6239 426.884C82.0838 427.039 79.5458 427.227 77 427.153C79.6981 430.403 81.8136 434.107 84.083 437.662L99.4016 462.162L98.9898 462.125L87.0898 462.109L70.0795 489.368L52.2816 462.036L55.462 461.469C53.572 457.541 51.3751 453.77 48.7894 450.254L48.5851 460.467L27.8146 427.217L35.9747 426.956C37.5214 426.958 39.0728 426.889 40.5603 427.375C42.7588 429.594 44.1511 433.002 45.8677 435.637C46.353 436.383 47.05 437.666 47.875 437.987C48.7561 436.977 48.1595 430.066 48.0858 428.433L69.196 461.509L65.1999 462.436L69.792 468.64L73.5097 463.614C73.9633 463.057 74.4234 462.344 75.0889 462.037L86.1709 461.89C85.0037 459.606 83.3991 457.56 82.0577 455.375L72.4824 439.995C69.7853 435.752 67.5227 430.916 64.1831 427.149L57.3806 426.863L84.785 419.309L94.2795 416.568C96.1098 416.044 98.1191 415.356 100.03 415.231C102.941 415.04 106.856 416.603 109.67 417.404L124.807 421.661L137.125 424.977C138.928 425.471 141.078 425.766 142.77 426.569L143.128 426.773L137.273 427.279C139.56 430.402 141.435 433.771 143.487 437.045L154.125 454.033C154.893 455.268 158.817 460.636 158.856 461.625C158.209 462.104 157.47 461.992 156.704 461.987C154.448 461.974 152.224 461.634 149.966 461.787L156.374 463.862L189.582 472.888L210 478.516L220.397 481.41C221.485 481.669 224.753 482.652 225.674 482.23C225.703 481.521 225.323 480.979 224.998 480.375C225.147 479.755 225.11 479.582 225.697 479.242C226.674 478.676 228.022 478.413 229.102 478.08L238.073 475.644L247.366 472.847L277.248 464.761L277.366 473.153L232.653 485.748C227.52 487.225 222.698 489.381 217.5 490.719L193.637 496.458L156.651 505.675L140.774 509.467C138.142 510.133 135.105 510.675 132.727 512L98.4533 512C100.829 509.909 133.742 502.855 139.233 501.529L189.927 489.189C179.998 487.906 169.834 489.584 159.88 488.209L145.906 484.41Z"/>
	<path fill="#CD1931" d="M0 6.59811L-0 -0L20.5476 0L51.0428 0L89.3058 0L119.284 0L119 0.194214C117.827 0.959733 115.892 1.26193 114.521 1.70712L102.665 5.4215L94.973 7.6237C93.5873 8.02512 91.9618 8.30258 90.6753 8.95102L99 11.3032L116.075 16.3954L131.308 20.7783C135 21.8452 138.568 23.0888 142.367 23.7623L140.695 24.3292C139.687 24.6595 139.128 25.1882 138.486 26.0181C135.443 29.9495 133.239 34.9437 130.824 39.2932L119.981 58.75L120.125 59.3421C120.771 59.5588 121.036 59.5164 121.375 60.1275C120.94 60.6303 120.132 60.7936 119.5 60.9869L106.02 64.5199L33.6795 84.7471L27.5 86.2759C26.889 86.4067 25.3807 86.4811 24.9275 86.8305C23.5339 87.9046 22.1863 90.5438 21.2139 92.0764C17.6388 97.7115 14.4536 104.002 10.2036 109.158L9.84889 95.2582C9.84337 93.6195 9.59025 91.4467 9.97558 89.8688C10.2485 88.7511 11.1446 87.6413 11.8392 86.7424L11.5106 86.6902L0 83.6338L0 74.8507L-0 66.5666L0 52.17L0 11.153L0 6.59811Z"/>
	<path fill="#1E2E57" d="M0 6.59811L-0 -0L20.5476 0C17.7333 2.17018 12.7131 3.03391 9.2742 4.06771C6.29464 4.96342 3.08058 6.21041 0 6.59811Z"/>
	<path fill="#1E2E57" d="M51.0428 0L89.3058 0C87.3369 1.6126 83.9141 2.27748 81.448 2.99057C74.8728 4.89182 67.5883 6.14502 61.3658 9.01171C65.0693 10.3751 69.0391 11.354 72.8338 12.4702L93.6696 18.557L105.441 21.9817C107.971 22.7346 110.505 23.6244 113.11 24.0789C116.702 24.7059 120.663 24.6792 124.314 24.7777L110.518 46.3484C107.595 42.0768 104.993 37.372 102.325 32.9293C100.754 30.3114 99.2651 27.4677 97.135 25.2557C96.979 25.0937 96.6301 24.6775 96.4557 24.5779C95.7359 24.1669 84.2888 24.4691 82.3868 24.446C82.9577 25.9113 83.8882 27.3115 84.6376 28.6951L90.3194 38.5229L102.295 59.2555L95.1025 59.6352C93.7698 57.2023 92.1154 54.8748 90.6683 52.4996L77.1393 30.8583L73.8545 25.3903C73.6583 25.0767 73.2192 24.1502 72.9434 23.9456C71.9037 23.1741 69.7498 22.7405 68.4977 22.375L58.9776 19.7003L41.5679 14.5425L31 11.4228C28.1582 10.6022 25.2746 9.90934 22.6223 8.57008C25.6242 7.96353 28.5016 7.00455 31.4389 6.15219L43.009 2.81697C45.2374 2.14945 48.8267 1.51811 50.6705 0.2661L51.0428 0Z"/>
	<path fill="#1E2E57" d="M0 11.153L11.1377 14.4229L28.0692 19.27C33.3255 20.917 38.7844 22.9451 44.1797 23.9981C46.6781 24.4856 59.4743 24.2724 60.281 24.7886C60.6053 24.9961 61.1701 25.918 61.4161 26.2518C62.7393 28.0472 63.8851 30.015 65.0503 31.9167L73.9648 46.3989C76.6956 50.8538 79.3246 56.0682 83.0136 59.7824C86.1671 59.7685 89.8158 58.9938 92.8841 59.7077L37.5958 74.8347L27.0972 77.711C24.5111 78.4653 21.478 79.7702 18.7824 79.8756C16.614 79.9605 13.3063 78.5244 11.1498 77.8931L0 74.8507L-0 66.5666L0 52.17L0 11.153Z"/>
	<path fill="#CD1931" d="M0 52.17C2.03954 53.9126 2.83985 56.782 4.72656 58.5782C6.09562 59.8816 17.5315 62.7276 19.5691 62.5602C22.9609 62.2814 27.1633 60.774 30.3473 59.5799C28.3812 59.5691 23.3779 60.2536 22.0921 58.9071C21.059 57.8251 20.2337 56.319 19.4251 55.0638L15.2139 48.3772L5.47057 32.4592C3.8523 29.7745 2.24044 26.452 -0.033029 24.2802L13.19 24.6077C15.6963 27.8379 17.6979 31.4502 19.9166 34.8812C25.0421 42.8068 30.2709 50.8632 34.7703 59.1598L50.0334 59.334L27.6172 24.3911C31.9806 24.6827 36.9302 23.8684 41.159 24.8594C43.3997 27.8563 45.2182 31.3053 47.1723 34.4999L57.3546 50.8662C59.133 53.7066 60.8128 56.7285 62.9509 59.3133L40.5113 65.5302L25.2827 69.8145C23.3249 70.3343 20.6557 71.3326 18.625 71.1854C16.9817 71.0663 15.2793 70.5572 13.6794 70.1605C9.10053 69.0251 4.66021 67.3637 -0 66.5666L0 52.17Z"/>
	<path fill="#CD1931" d="M0 235.327C4.64536 236.237 9.14584 237.69 13.75 238.769L69.0254 252.163L77.1621 254.128C78.6835 254.49 80.7251 254.789 82.075 255.589L67.0193 255.705C63.6641 255.685 60.2142 255.509 56.8691 255.777C50.407 256.295 43.7473 258.955 37.5317 260.738C32.7119 262.12 27.4715 263.19 22.8868 265.188L73.8319 280.267L73.8825 280.594C74.2255 282.563 75.2504 284.041 76.2857 285.712L80.3795 292.189L88.6665 305.443C90.7613 308.75 93.0296 312.069 94.836 315.542L102.228 315.558L82.3683 280.744L93.7774 280.673C94.7575 280.714 96.1441 280.598 97.0518 280.977L110.437 302.727L120.136 287.379C121.462 285.221 123.147 283.127 124.206 280.829C120.882 280.787 117.28 281.007 114.016 280.453C109.567 279.696 105.192 278.173 100.875 276.873L87.0387 272.871L69.9086 267.823C66.948 266.948 63.7532 266.187 60.888 265.077L189.58 232.753C186.803 232.421 183.987 232.515 181.194 232.506L169.222 232.486C165.917 232.496 162.624 232.558 159.355 231.973C157.286 231.602 155.374 230.881 153.375 230.277L145.709 228.08L132.334 224.465L119.581 220.875C116.792 220.1 114.038 219.189 111.182 218.679L110.993 209.777L158.747 222.967L176.637 227.886L187.25 230.817C189.046 231.317 190.789 231.954 192.638 232.24C196.663 232.862 201.05 232.347 205.113 232.318C207.879 232.299 211.379 232.686 214.062 232.16L186.875 224.718L153.313 215.42L133.481 209.884C127.308 208.144 120.8 205.845 114.355 205.638C110.89 201.856 108.436 197.125 105.738 192.785L91.731 171.16L104.794 170.791L121.754 197.776L124.89 202.763C125.409 203.592 125.937 204.7 126.687 205.327L146.395 205.715L124.17 171.053C120.44 170.808 116.431 171.134 112.775 170.589C109.841 170.152 107.009 169.102 104.135 168.399C102.891 168.095 101.562 167.713 100.272 167.767C96.8112 167.912 93.0273 169.486 89.625 170.192C85.5764 171.031 81.361 171.03 77.243 171.012L99.0269 205.76L87.1005 205.702L87.0164 205.901C86.2706 207.578 85.0538 209.064 84.0986 210.636L75.3783 224.132C73.5759 226.88 71.5605 229.74 70.1906 232.728L52.5132 206.311L55.6375 205.488C53.8195 201.618 51.4268 197.756 48.7031 194.455L48.7955 204.367L27.5668 170.905L40.7348 170.884L44.0656 176.158C45.3488 178.331 46.5103 180.826 48.2676 182.648L48.2785 172.59L68.6913 204.982C67.7937 205.523 66.5519 205.731 65.5418 206.014C66.8296 208.229 68.1653 210.498 69.7966 212.483L74.1038 205.728L86.6406 205.761C84.5416 202.965 82.8184 199.886 80.9241 196.947L72.8838 184.556L67.0126 174.951C66.2092 173.726 65.2317 172.062 64.1252 171.098C63.9096 170.91 63.7072 170.758 63.4207 170.718C61.9973 170.518 59.548 171.384 58.4197 170.773L58.5929 170.375C60.8944 169.496 63.2501 169.03 65.6086 168.362L80.0351 164.348L93.6138 160.622C95.6969 160.048 98.4239 158.928 100.577 158.984C101.908 159.018 103.334 159.521 104.626 159.864L111.61 161.721L132.27 167.414L143.557 170.522C141.744 170.678 139.454 170.388 137.809 171.125L137.504 171.625C137.659 172.182 137.878 172.38 138.256 172.789C140.847 175.6 142.745 179.669 144.803 182.902L154.15 197.848C155.759 200.426 157.656 202.866 158.816 205.69C156.269 205.794 153.672 205.69 151.148 206.051L201.116 219.876C209.045 222.051 217.158 224.972 225.255 226.335L225.368 222.912L277.089 208.547C277.208 211.468 277.282 214.287 276.938 217.2L90.6636 264.965C95.972 266.998 101.781 268.386 107.25 269.978L130.555 276.881L137.896 278.881C138.425 279.021 140.055 279.308 140.442 279.625C140.568 279.728 140.651 279.875 140.755 280L140.064 280.511C138.834 281.336 138.024 282.896 137.249 284.127L131.161 294.76L119.542 315.266C120.298 315.506 121.537 315.674 122.055 316.25C119.697 317.746 115.533 318.288 112.75 319.027L98.7658 322.817L63.3223 332.687L34.8699 340.507C33.252 340.978 24.6696 342.859 24.3119 343.171C24.011 343.433 23.6013 344.37 23.3794 344.745L20.8003 349.059C17.3906 354.594 13.9243 360.507 9.93241 365.628L9.79962 353C9.76507 350.801 9.53346 348.175 10.0041 346.025C10.2463 344.919 10.8546 344.017 11.5519 343.15L11.5289 342.895C7.84087 341.629 3.8682 340.417 0 339.908L0 331.152L0 322.639L0 308.169L0 281.22L0 280.73L0 267.395L0 262.565L-0 255.594L0 251.672L0 243.805L0 235.327Z"/>
	<path fill="#1E2E57" d="M0 243.805L46.4514 255.403L32.1831 255.493C29.5794 255.513 26.974 255.466 24.4082 255.958C21.7209 256.474 19.1378 257.412 16.5208 258.194L7.58838 260.695C5.1114 261.418 2.57103 262.285 0 262.565L-0 255.594L0 251.672L0 243.805Z"/>
	<path fill="#CD1931" d="M0 251.672C3.47669 252.096 6.77652 253.054 10.1719 253.876C12.1184 254.347 14.1776 254.614 16 255.466C13.5105 255.841 11.009 255.774 8.49787 255.767L-0 255.594L0 251.672Z"/>
	<path fill="#1E2E57" d="M0 267.395L15.9924 271.993L29.094 275.8C33.988 277.307 38.9493 278.97 43.9378 280.123C47.5661 280.962 51.353 280.762 55.0533 280.805C56.5701 280.823 58.4339 280.707 59.8989 281.152C61.1085 281.518 62.8272 284.695 63.4707 285.743L76.2185 306.152C77.9317 308.865 79.4781 311.967 81.4461 314.485C81.8578 315.011 82.2039 315.39 82.8633 315.578C86.0892 316.498 89.4091 315.257 92.6226 315.363C90.3792 316.661 87.3123 317.17 84.8122 317.942L52.0584 327.083L31.1784 332.859C27.6316 333.844 24.1559 335.094 20.5323 335.787C18.9057 336.098 17.5839 335.883 16.0081 335.463L0 331.152L0 322.639L0 308.169L0 281.22L0 280.73L0 267.395Z"/>
	<path fill="#CD1931" d="M0 280.73L13.5445 280.809L13.7235 281.171C15.1664 284.053 17.0314 286.748 18.7328 289.483L29.3541 306.222L33.0497 312.281C33.6358 313.297 34.1087 314.568 34.8383 315.471L49.4758 315.379L28.1113 280.482C31.9192 280.713 36.4597 280.04 40.1307 280.905C40.6287 281.022 41.1503 281.328 41.4884 281.707C43.9203 284.439 45.8464 288.502 47.7595 291.625L58.3341 308.493C59.8551 310.92 61.2806 313.834 63.3213 315.85C60.6287 316.373 58.0492 317.252 55.3965 317.924L32.0613 324.171L24.6708 326.155C22.3722 326.774 20.1574 327.449 17.75 327.231C15.5794 327.034 13.3994 326.26 11.3184 325.64C7.62079 324.54 3.80689 323.291 0 322.639L0 308.169L0 281.22L0 280.73Z"/>
	<path fill="#1E2E57" d="M0 281.22C2.8405 283.363 4.95647 288.149 6.81353 291.189L13.0312 300.956L19.7556 311.8C20.4816 312.91 21.4306 314.704 22.6217 315.344C24.1958 316.191 27.5522 316.028 29.3639 316.137C26.5357 317.43 22.1832 318.786 19.0568 318.762C15.3653 318.734 10.5945 317.048 7.17588 315.772C6.45485 315.503 5.24321 315.159 4.6561 314.695C4.34894 314.451 3.95757 313.762 3.72028 313.43C2.5201 311.75 1.53322 309.535 0 308.169L0 281.22Z"/>
</svg>
